<?xml version="1.0" standalone="no"?>
<!DOCTYPE svg PUBLIC "-//W3C//DTD SVG 20010904//EN"
 "http://www.w3.org/TR/2001/REC-SVG-20010904/DTD/svg10.dtd">
<svg version="1.0" xmlns="http://www.w3.org/2000/svg"
 width="286.000000pt" height="286.000000pt" viewBox="0 0 286.000000 286.000000"
 preserveAspectRatio="xMidYMid meet">
<metadata>
Created by potrace 1.11, written by Peter Selinger 2001-2013
</metadata>
<g transform="translate(0.000000,286.000000) scale(0.100000,-0.100000)"
fill="#000000" stroke="none">
<path d="M666 2383 c-1 -2 -27 -5 -57 -8 -201 -17 -389 -152 -434 -312 -19
-69 -24 -168 -11 -246 20 -121 107 -264 215 -350 70 -57 207 -156 281 -205
103 -68 189 -153 221 -218 18 -38 24 -66 24 -120 0 -106 -35 -158 -142 -210
-74 -37 -196 -40 -259 -7 -153 81 -204 282 -115 453 l21 40 -25 6 c-43 11
-148 -6 -202 -32 -103 -50 -156 -141 -157 -269 -1 -95 22 -151 88 -220 113
-116 275 -174 492 -176 220 -2 389 60 509 187 103 109 148 290 104 423 -20 59
-75 144 -126 192 -53 51 -318 249 -332 249 -5 0 -11 3 -13 8 -2 4 -30 27 -63
52 -94 70 -157 145 -192 231 -25 62 -25 201 1 249 70 132 275 164 384 60 59
-57 74 -93 77 -185 3 -90 -9 -130 -61 -210 -18 -27 -31 -51 -29 -53 2 -2 32
-5 67 -6 137 -5 237 53 295 172 23 47 28 70 28 132 0 67 -4 82 -34 134 -74
132 -203 212 -374 232 -57 7 -176 11 -181 7z"/>
<path d="M1670 2358 c0 -345 -13 -575 -49 -843 -6 -44 -13 -100 -16 -125 -4
-25 -8 -56 -10 -70 -1 -14 -8 -65 -15 -115 -6 -49 -13 -101 -16 -115 -19 -117
-24 -321 -9 -356 4 -10 9 -23 10 -29 15 -64 104 -141 208 -180 86 -32 91 -32
82 3 -25 98 -21 412 9 607 2 11 4 39 5 62 1 39 4 44 72 93 39 29 74 48 78 43
7 -8 27 -56 58 -138 49 -128 161 -355 219 -442 66 -99 156 -183 243 -226 58
-28 75 -32 146 -32 102 1 145 7 145 20 0 5 -17 28 -38 50 -201 212 -347 473
-473 844 -22 62 -39 115 -39 117 0 1 33 28 73 58 39 31 79 61 88 68 145 113
279 250 315 324 24 49 29 71 29 134 0 88 -41 230 -66 230 -4 0 -19 -21 -34
-46 -28 -47 -156 -221 -210 -284 -50 -59 -387 -393 -439 -435 -27 -22 -63 -52
-80 -67 -50 -44 -51 -44 -35 52 5 36 12 76 14 90 2 14 6 44 9 68 3 23 9 61 12
85 4 23 7 53 9 67 1 14 6 54 10 90 11 96 8 221 -6 268 -16 53 -40 75 -114 100
-53 18 -185 40 -185 30z"/>
</g>
</svg>
